<svg width="40" height="40" viewBox="0 0 40 40" fill="none" xmlns="http://www.w3.org/2000/svg">
<path d="M13.0384 27.6784C13.0384 28.5673 12.3178 29.2879 11.4289 29.2879V31.7833C13.696 31.7833 15.5338 29.9455 15.5338 27.6784H13.0384ZM11.4289 29.2879C10.5401 29.2879 9.81949 28.5673 9.81949 27.6784H7.32407C7.32407 29.9455 9.16187 31.7833 11.4289 31.7833V29.2879ZM9.81949 27.6784C9.81949 26.7896 10.5401 26.069 11.4289 26.069V23.5736C9.16187 23.5736 7.32407 25.4114 7.32407 27.6784H9.81949ZM11.4289 26.069C12.3178 26.069 13.0384 26.7896 13.0384 27.6784H15.5338C15.5338 25.4114 13.696 23.5736 11.4289 23.5736V26.069Z" fill="#141414"/>
<path d="M28.7525 27.6784C28.7525 28.5673 28.0319 29.2879 27.143 29.2879V31.7833C29.4101 31.7833 31.2479 29.9455 31.2479 27.6784H28.7525ZM27.143 29.2879C26.2542 29.2879 25.5336 28.5673 25.5336 27.6784H23.0382C23.0382 29.9455 24.876 31.7833 27.143 31.7833V29.2879ZM25.5336 27.6784C25.5336 26.7896 26.2542 26.069 27.143 26.069V23.5736C24.876 23.5736 23.0382 25.4114 23.0382 27.6784H25.5336ZM27.143 26.069C28.0319 26.069 28.7525 26.7896 28.7525 27.6784H31.2479C31.2479 25.4114 29.4101 23.5736 27.143 23.5736V26.069Z" fill="#141414"/>
<path d="M8.75 27.713H7.81792C6.77996 27.713 5.89274 26.9684 5.80505 25.9341C5.68968 24.5733 5.64158 22.6562 6.02497 21.0047C6.50603 18.9324 8.00595 17.0692 8.84611 16.1529C9.21067 15.7553 9.7308 15.5542 10.2702 15.5542H21.2668C21.7632 15.5542 22.2442 15.7263 22.6279 16.0412L27.7843 20.2724C28.0354 20.4784 28.3299 20.6247 28.6457 20.7003L31.1743 21.3058C32.0054 21.5048 32.6391 22.1781 32.7876 23.0196L33.1714 25.1944C33.4033 26.5083 32.3926 27.713 31.0584 27.713H30.0398M24.318 27.713H14.3048" stroke="black" stroke-width="2.49542"/>
</svg>
