<svg width="41" height="40" viewBox="0 0 41 40" fill="none" xmlns="http://www.w3.org/2000/svg">
<path d="M11.0523 27.6784C11.0523 28.5673 10.3317 29.2879 9.44284 29.2879V31.7833C11.7099 31.7833 13.5477 29.9455 13.5477 27.6784H11.0523ZM9.44284 29.2879C8.55397 29.2879 7.8334 28.5673 7.8334 27.6784H5.33798C5.33798 29.9455 7.17579 31.7833 9.44284 31.7833V29.2879ZM7.8334 27.6784C7.8334 26.7896 8.55397 26.069 9.44284 26.069V23.5736C7.17579 23.5736 5.33798 25.4114 5.33798 27.6784H7.8334ZM9.44284 26.069C10.3317 26.069 11.0523 26.7896 11.0523 27.6784H13.5477C13.5477 25.4114 11.7099 23.5736 9.44284 23.5736V26.069Z" fill="#141414"/>
<path d="M31.7669 27.6784C31.7669 28.5673 31.0463 29.2879 30.1574 29.2879V31.7833C32.4245 31.7833 34.2623 29.9455 34.2623 27.6784H31.7669ZM30.1574 29.2879C29.2686 29.2879 28.548 28.5673 28.548 27.6784H26.0526C26.0526 29.9455 27.8904 31.7833 30.1574 31.7833V29.2879ZM28.548 27.6784C28.548 26.7896 29.2686 26.069 30.1574 26.069V23.5736C27.8904 23.5736 26.0526 25.4114 26.0526 27.6784H28.548ZM30.1574 26.069C31.0463 26.069 31.7669 26.7896 31.7669 27.6784H34.2623C34.2623 25.4114 32.4245 23.5736 30.1574 23.5736V26.069Z" fill="#141414"/>
<path d="M6.59418 27.713H5.11337C4.07976 27.713 3.19491 26.9746 3.10445 25.945C2.98485 24.5835 2.93394 22.6606 3.33019 21.0047C3.64951 19.6703 5.55763 19.872 7.54365 18.9079C9.20026 18.1038 10.9111 16.796 11.7994 16.074C12.2047 15.7446 12.7077 15.5542 13.23 15.5542H21.2771C21.7086 15.5542 22.1301 15.6843 22.4865 15.9275L28.9152 20.3141C29.177 20.4928 29.4752 20.6112 29.7883 20.6609L34.4958 21.4079C35.3562 21.5444 36.0487 22.1876 36.2482 23.0356L36.7283 25.0759C37.0452 26.4227 36.0233 27.713 34.6396 27.713H33.0574M12.4196 27.713H26.978" stroke="black" stroke-width="2.49542"/>
</svg>
