<svg width="41" height="40" viewBox="0 0 41 40" fill="none" xmlns="http://www.w3.org/2000/svg">
<path d="M12.3963 27.6784C12.3963 28.5673 11.6757 29.2879 10.7868 29.2879V31.7833C13.0539 31.7833 14.8917 29.9455 14.8917 27.6784H12.3963ZM10.7868 29.2879C9.89797 29.2879 9.1774 28.5673 9.1774 27.6784H6.68198C6.68198 29.9455 8.51978 31.7833 10.7868 31.7833V29.2879ZM9.1774 27.6784C9.1774 26.7896 9.89797 26.069 10.7868 26.069V23.5736C8.51978 23.5736 6.68198 25.4114 6.68198 27.6784H9.1774ZM10.7868 26.069C11.6757 26.069 12.3963 26.7896 12.3963 27.6784H14.8917C14.8917 25.4114 13.0539 23.5736 10.7868 23.5736V26.069Z" fill="#141414"/>
<path d="M33.825 27.6784C33.825 28.5673 33.1044 29.2879 32.2155 29.2879V31.7833C34.4826 31.7833 36.3204 29.9455 36.3204 27.6784H33.825ZM32.2155 29.2879C31.3267 29.2879 30.6061 28.5673 30.6061 27.6784H28.1107C28.1107 29.9455 29.9485 31.7833 32.2155 31.7833V29.2879ZM30.6061 27.6784C30.6061 26.7896 31.3267 26.069 32.2155 26.069V23.5736C29.9485 23.5736 28.1107 25.4114 28.1107 27.6784H30.6061ZM32.2155 26.069C33.1044 26.069 33.825 26.7896 33.825 27.6784H36.3204C36.3204 25.4114 34.4826 23.5736 32.2155 23.5736V26.069Z" fill="#141414"/>
<path d="M7.93942 27.7134H5.81699C5.31117 27.7134 4.82348 27.5136 4.64798 27.0392C4.34088 26.2091 4.06184 24.4675 4.72517 21.054C5.79383 15.5546 4.72517 14.8394 14.0274 14.8394C21.031 14.8394 26.3102 14.9303 28.4916 14.9753C29.182 14.9895 29.8202 15.3382 30.2089 15.909L32.882 19.8345C33.1819 20.2751 33.6351 20.5882 34.1532 20.7129L36.5248 21.2839C37.3985 21.4943 38.0485 22.2268 38.1535 23.1193L38.4121 25.317C38.5622 26.5926 37.5655 27.7134 36.2811 27.7134H35.1179M29.3961 27.7134H13.3036" stroke="black" stroke-width="2.49542"/>
</svg>
