<svg width="41" height="40" viewBox="0 0 41 40" fill="none" xmlns="http://www.w3.org/2000/svg">
<path d="M12.0818 27.6784C12.0818 28.5673 11.3612 29.2879 10.4724 29.2879V31.7833C12.7394 31.7833 14.5772 29.9455 14.5772 27.6784H12.0818ZM10.4724 29.2879C9.58351 29.2879 8.86295 28.5673 8.86295 27.6784H6.36752C6.36752 29.9455 8.20533 31.7833 10.4724 31.7833V29.2879ZM8.86295 27.6784C8.86295 26.7896 9.58351 26.069 10.4724 26.069V23.5736C8.20533 23.5736 6.36752 25.4114 6.36752 27.6784H8.86295ZM10.4724 26.069C11.3612 26.069 12.0818 26.7896 12.0818 27.6784H14.5772C14.5772 25.4114 12.7394 23.5736 10.4724 23.5736V26.069Z" fill="#141414"/>
<path d="M32.7962 27.6784C32.7962 28.5673 32.0756 29.2879 31.1867 29.2879V31.7833C33.4538 31.7833 35.2916 29.9455 35.2916 27.6784H32.7962ZM31.1867 29.2879C30.2979 29.2879 29.5773 28.5673 29.5773 27.6784H27.0819C27.0819 29.9455 28.9197 31.7833 31.1867 31.7833V29.2879ZM29.5773 27.6784C29.5773 26.7896 30.2979 26.069 31.1867 26.069V23.5736C28.9197 23.5736 27.0819 25.4114 27.0819 27.6784H29.5773ZM31.1867 26.069C32.0756 26.069 32.7962 26.7896 32.7962 27.6784H35.2916C35.2916 25.4114 33.4538 23.5736 31.1867 23.5736V26.069Z" fill="#141414"/>
<path d="M7.62397 27.7134H6.34486C5.32482 27.7134 4.44729 26.995 4.31155 25.984C4.1265 24.6057 3.9466 22.6269 4.11479 20.8977C4.17981 20.2291 4.76719 19.7618 5.43893 19.7618H20.5055V15.5546C20.5055 15.1596 20.8329 14.8394 21.2279 14.8394C21.446 14.8394 21.654 14.8394 21.8524 14.8394C23.9192 14.8394 26.2286 17.4744 27.8875 18.7072L29.4334 19.8561C29.7079 20.0601 30.0272 20.1955 30.3646 20.2511L35.0752 21.0268C35.9813 21.176 36.692 21.8854 36.843 22.7912L37.2469 25.215C37.4649 26.5228 36.4563 27.7134 35.1304 27.7134H34.0872M13.3458 27.7134H28.3654" stroke="black" stroke-width="2.49542"/>
</svg>
