<svg width="41" height="40" viewBox="0 0 41 40" fill="none" xmlns="http://www.w3.org/2000/svg">
<path d="M12.2388 27.6784C12.2388 28.5673 11.5182 29.2879 10.6294 29.2879V31.7833C12.8964 31.7833 14.7342 29.9455 14.7342 27.6784H12.2388ZM10.6294 29.2879C9.7405 29.2879 9.01993 28.5673 9.01993 27.6784H6.52451C6.52451 29.9455 8.36231 31.7833 10.6294 31.7833V29.2879ZM9.01993 27.6784C9.01993 26.7896 9.7405 26.069 10.6294 26.069V23.5736C8.36231 23.5736 6.52451 25.4114 6.52451 27.6784H9.01993ZM10.6294 26.069C11.5182 26.069 12.2388 26.7896 12.2388 27.6784H14.7342C14.7342 25.4114 12.8964 23.5736 10.6294 23.5736V26.069Z" fill="#141414"/>
<path d="M32.9534 27.6784C32.9534 28.5673 32.2328 29.2879 31.344 29.2879V31.7833C33.611 31.7833 35.4488 29.9455 35.4488 27.6784H32.9534ZM31.344 29.2879C30.4551 29.2879 29.7345 28.5673 29.7345 27.6784H27.2391C27.2391 29.9455 29.0769 31.7833 31.344 31.7833V29.2879ZM29.7345 27.6784C29.7345 26.7896 30.4551 26.069 31.344 26.069V23.5736C29.0769 23.5736 27.2391 25.4114 27.2391 27.6784H29.7345ZM31.344 26.069C32.2328 26.069 32.9534 26.7896 32.9534 27.6784H35.4488C35.4488 25.4114 33.611 23.5736 31.344 23.5736V26.069Z" fill="#141414"/>
<path d="M7.7822 27.713H6.10986C5.34443 27.713 4.63918 27.2969 4.45382 26.5542C4.19346 25.511 4.00385 23.7793 4.56354 21.4236C5.53317 17.3423 5.27892 15.5542 13.0708 15.5542C19.3698 15.5542 24.4093 16.0089 26.1091 16.1832C26.5142 16.2247 26.8949 16.3866 27.2106 16.6438L32.0866 20.6163C32.3308 20.8152 32.6158 20.958 32.9214 21.0344L35.4138 21.6575C36.2273 21.8608 36.8478 22.5195 37.0023 23.3437L37.3451 25.1719C37.5927 26.4924 36.5797 27.713 35.2362 27.713H34.2455M13.504 27.713H28.5237" stroke="black" stroke-width="2.49542"/>
</svg>
