<svg width="41" height="40" viewBox="0 0 41 40" fill="none" xmlns="http://www.w3.org/2000/svg">
<path d="M11.9239 27.6784C11.9239 28.5673 11.2033 29.2879 10.3144 29.2879V31.7833C12.5815 31.7833 14.4193 29.9455 14.4193 27.6784H11.9239ZM10.3144 29.2879C9.42555 29.2879 8.70499 28.5673 8.70499 27.6784H6.20956C6.20956 29.9455 8.04737 31.7833 10.3144 31.7833V29.2879ZM8.70499 27.6784C8.70499 26.7896 9.42555 26.069 10.3144 26.069V23.5736C8.04737 23.5736 6.20956 25.4114 6.20956 27.6784H8.70499ZM10.3144 26.069C11.2033 26.069 11.9239 26.7896 11.9239 27.6784H14.4193C14.4193 25.4114 12.5815 23.5736 10.3144 23.5736V26.069Z" fill="#141414"/>
<path d="M32.6384 27.6784C32.6384 28.5673 31.9179 29.2879 31.029 29.2879V31.7833C33.2961 31.7833 35.1339 29.9455 35.1339 27.6784H32.6384ZM31.029 29.2879C30.1402 29.2879 29.4196 28.5673 29.4196 27.6784H26.9242C26.9242 29.9455 28.762 31.7833 31.029 31.7833V29.2879ZM29.4196 27.6784C29.4196 26.7896 30.1402 26.069 31.029 26.069V23.5736C28.762 23.5736 26.9242 25.4114 26.9242 27.6784H29.4196ZM31.029 26.069C31.9179 26.069 32.6384 26.7896 32.6384 27.6784H35.1339C35.1339 25.4114 33.2961 23.5736 31.029 23.5736V26.069Z" fill="#141414"/>
<path d="M7.46712 27.713H5.32756C4.38014 27.713 3.54498 27.0902 3.38896 26.1558C3.18081 24.909 3.0239 23.098 3.42171 21.4236C4.11897 18.4887 8.30192 15.5537 12.7557 15.5542C16.2302 15.5546 20.0359 15.5544 21.5414 15.5543C21.9754 15.5542 22.3989 15.6858 22.7566 15.9316L29.0941 20.2872C29.3792 20.4831 29.7074 20.6072 30.0508 20.6489L34.846 21.2309C35.788 21.3452 36.543 22.0647 36.7026 23.0001L37.0789 25.2065C37.3024 26.5168 36.293 27.713 34.9638 27.713H33.9304M28.5662 27.713H12.7557" stroke="black" stroke-width="2.49542"/>
</svg>
