<svg width="40" height="40" viewBox="0 0 40 40" fill="none" xmlns="http://www.w3.org/2000/svg">
<g clip-path="url(#clip0_4759_54846)">
<path d="M8.33309 13.3332C10.174 13.3332 11.6664 11.8408 11.6664 9.99984C11.6664 8.15889 10.174 6.6665 8.33309 6.6665C6.49214 6.6665 4.99976 8.15889 4.99976 9.99984C4.99976 11.8408 6.49214 13.3332 8.33309 13.3332Z" stroke="black" stroke-width="2.50568" stroke-linecap="round" stroke-linejoin="round"/>
<path d="M20.0001 13.3332C21.841 13.3332 23.3334 11.8408 23.3334 9.99984C23.3334 8.15889 21.841 6.6665 20.0001 6.6665C18.1591 6.6665 16.6667 8.15889 16.6667 9.99984C16.6667 11.8408 18.1591 13.3332 20.0001 13.3332Z" stroke="black" stroke-width="2.50568" stroke-linecap="round" stroke-linejoin="round"/>
<path d="M31.6666 13.3332C33.5075 13.3332 34.9999 11.8408 34.9999 9.99984C34.9999 8.15889 33.5075 6.6665 31.6666 6.6665C29.8256 6.6665 28.3333 8.15889 28.3333 9.99984C28.3333 11.8408 29.8256 13.3332 31.6666 13.3332Z" stroke="black" stroke-width="2.50568" stroke-linecap="round" stroke-linejoin="round"/>
<path d="M8.33309 33.3337C10.174 33.3337 11.6664 31.8413 11.6664 30.0003C11.6664 28.1594 10.174 26.667 8.33309 26.667C6.49214 26.667 4.99976 28.1594 4.99976 30.0003C4.99976 31.8413 6.49214 33.3337 8.33309 33.3337Z" stroke="#141414" stroke-width="2.50568" stroke-linecap="round" stroke-linejoin="round"/>
<path d="M20.0001 33.3337C21.841 33.3337 23.3334 31.8413 23.3334 30.0003C23.3334 28.1594 21.841 26.667 20.0001 26.667C18.1591 26.667 16.6667 28.1594 16.6667 30.0003C16.6667 31.8413 18.1591 33.3337 20.0001 33.3337Z" stroke="#141414" stroke-width="2.50568" stroke-linecap="round" stroke-linejoin="round"/>
<path d="M8.33301 13.332V26.6654" stroke="#141414" stroke-width="2.50568" stroke-linecap="round" stroke-linejoin="round"/>
<path d="M20.0002 13.332V26.6654" stroke="#141414" stroke-width="2.50568" stroke-linecap="round" stroke-linejoin="round"/>
<path d="M31.6663 13.332V16.6654C31.6663 17.5494 31.3152 18.3973 30.69 19.0224C30.0649 19.6475 29.2171 19.9987 28.333 19.9987H8.33301" stroke="#141414" stroke-width="2.50568" stroke-linecap="round" stroke-linejoin="round"/>
</g>
<defs>
<clipPath id="clip0_4759_54846">
<rect width="40" height="40" fill="white"/>
</clipPath>
</defs>
</svg>
