<svg width="40" height="40" viewBox="0 0 40 40" fill="none" xmlns="http://www.w3.org/2000/svg">
<g clip-path="url(#clip0_1152_68)">
<mask id="mask0_1152_68" style="mask-type:luminance" maskUnits="userSpaceOnUse" x="0" y="0" width="40" height="40">
<path d="M40 0H0V40H40V0Z" fill="white"/>
</mask>
<g mask="url(#mask0_1152_68)">
<path d="M20 35.0005C18.0301 35.0005 16.0796 34.6125 14.2597 33.8587C12.4398 33.1049 10.7862 32 9.39339 30.6071C8.00052 29.2142 6.89562 27.5606 6.1418 25.7407C5.38798 23.9209 5 21.9703 5 20.0005C5 18.0307 5.38798 16.0801 6.1418 14.2602C6.89562 12.4404 8.00052 10.7868 9.39339 9.39389C10.7862 8.00101 12.4398 6.89612 14.2597 6.1423C16.0796 5.38847 18.0301 5.00049 20 5.00049C23.9782 5.00049 27.7935 6.40525 30.6066 8.90573C33.4196 11.4062 35 14.7976 35 18.3338C35 20.1019 34.2098 21.7976 32.8033 23.0479C31.3967 24.2981 29.4891 25.0005 27.5 25.0005H23.3333C22.5897 24.9885 21.8635 25.2255 21.2702 25.6738C20.6768 26.1221 20.2504 26.756 20.0588 27.4745C19.8672 28.1931 19.9214 28.9551 20.2127 29.6393C20.504 30.3235 21.0158 30.8906 21.6666 31.2505C21.9994 31.5576 22.2276 31.9612 22.3192 32.4046C22.4108 32.848 22.3611 33.309 22.1772 33.7228C21.9933 34.1366 21.6844 34.4823 21.2939 34.7115C20.9034 34.9407 20.4509 35.0417 20 35.0005Z" stroke="black" stroke-width="2.50568" stroke-linecap="round" stroke-linejoin="round"/>
<path d="M12.4993 18.3327C12.9596 18.3327 13.3327 17.9596 13.3327 17.4993C13.3327 17.0391 12.9596 16.666 12.4993 16.666C12.0391 16.666 11.666 17.0391 11.666 17.4993C11.666 17.9596 12.0391 18.3327 12.4993 18.3327Z" fill="black" stroke="black" stroke-width="2.50568" stroke-linecap="round" stroke-linejoin="round"/>
<path d="M19.9993 13.3337C20.4596 13.3337 20.8327 12.9606 20.8327 12.5003C20.8327 12.0401 20.4596 11.667 19.9993 11.667C19.5391 11.667 19.166 12.0401 19.166 12.5003C19.166 12.9606 19.5391 13.3337 19.9993 13.3337Z" fill="black" stroke="black" stroke-width="2.50568" stroke-linecap="round" stroke-linejoin="round"/>
<path d="M27.5013 18.3327C27.9616 18.3327 28.3347 17.9596 28.3347 17.4993C28.3347 17.0391 27.9616 16.666 27.5013 16.666C27.0411 16.666 26.668 17.0391 26.668 17.4993C26.668 17.9596 27.0411 18.3327 27.5013 18.3327Z" fill="black" stroke="black" stroke-width="2.50568" stroke-linecap="round" stroke-linejoin="round"/>
</g>
</g>
<defs>
<clipPath id="clip0_1152_68">
<rect width="40" height="40" fill="white"/>
</clipPath>
</defs>
</svg>
