<svg width="40" height="40" viewBox="0 0 40 40" fill="none" xmlns="http://www.w3.org/2000/svg">
<g clip-path="url(#clip0_1152_77)">
<mask id="mask0_1152_77" style="mask-type:luminance" maskUnits="userSpaceOnUse" x="0" y="0" width="40" height="40">
<path d="M40 0H0V40H40V0Z" fill="white"/>
</mask>
<g mask="url(#mask0_1152_77)">
<path d="M25.2918 25.4162H30.3672M33.75 30.4162V9.58285C33.75 7.7419 32.2355 6.24951 30.3672 6.24951H19.9928C19.0577 6.24951 18.1644 6.63087 17.5249 7.30304L7.165 18.1918C6.34501 19.0536 6.04924 20.2788 6.38753 21.4121L9.35585 31.3567C9.77928 32.7753 11.1006 33.7495 12.6013 33.7495H30.3672C32.2355 33.7495 33.75 32.2571 33.75 30.4162ZM30.3672 12.0828V18.7495C30.3672 19.67 29.6099 20.4162 28.6758 20.4162H15.6065C14.1348 20.4162 13.3652 18.6923 14.3597 17.6233L20.5616 10.9566C20.882 10.6123 21.3343 10.4162 21.8084 10.4162H28.6758C29.6099 10.4162 30.3672 11.1624 30.3672 12.0828Z" stroke="black" stroke-width="2.50568" stroke-linecap="round"/>
</g>
</g>
<defs>
<clipPath id="clip0_1152_77">
<rect width="40" height="40" fill="white"/>
</clipPath>
</defs>
</svg>
